<svg width="386" height="106" viewBox="0 0 386 106" fill="none" xmlns="http://www.w3.org/2000/svg">
<path d="M27.2022 51.1V56.75H17.9022V86H10.9022V56.75H1.6022V51.1H27.2022ZM47.9096 57.9C50.0096 57.9 51.8763 58.3667 53.5096 59.3C55.143 60.2 56.4096 61.55 57.3096 63.35C58.243 65.1167 58.7096 67.25 58.7096 69.75V86H51.7096V70.7C51.7096 68.5 51.1596 66.8167 50.0596 65.65C48.9596 64.45 47.4596 63.85 45.5596 63.85C43.6263 63.85 42.093 64.45 40.9596 65.65C39.8596 66.8167 39.3096 68.5 39.3096 70.7V86H32.3096V49H39.3096V61.75C40.2096 60.55 41.4096 59.6167 42.9096 58.95C44.4096 58.25 46.0763 57.9 47.9096 57.9ZM91.1163 71.55C91.1163 72.55 91.0496 73.45 90.9163 74.25H70.6663C70.8329 76.25 71.5329 77.8167 72.7663 78.95C73.9996 80.0833 75.5163 80.65 77.3163 80.65C79.9163 80.65 81.7663 79.5333 82.8663 77.3H90.4163C89.6163 79.9667 88.0829 82.1667 85.8163 83.9C83.5496 85.6 80.7663 86.45 77.4663 86.45C74.7996 86.45 72.3996 85.8667 70.2663 84.7C68.1663 83.5 66.5163 81.8167 65.3163 79.65C64.1496 77.4833 63.5663 74.9833 63.5663 72.15C63.5663 69.2833 64.1496 66.7667 65.3163 64.6C66.4829 62.4333 68.1163 60.7667 70.2163 59.6C72.3163 58.4333 74.7329 57.85 77.4663 57.85C80.0996 57.85 82.4496 58.4167 84.5163 59.55C86.6163 60.6833 88.2329 62.3 89.3663 64.4C90.5329 66.4667 91.1163 68.85 91.1163 71.55ZM83.8663 69.55C83.8329 67.75 83.1829 66.3167 81.9163 65.25C80.6496 64.15 79.0996 63.6 77.2663 63.6C75.5329 63.6 74.0663 64.1333 72.8663 65.2C71.6996 66.2333 70.9829 67.6833 70.7163 69.55H83.8663ZM126.14 86L118.44 72.4H115.14V86H108.14V51.1H121.24C123.94 51.1 126.24 51.5833 128.14 52.55C130.04 53.4833 131.456 54.7667 132.39 56.4C133.356 58 133.84 59.8 133.84 61.8C133.84 64.1 133.173 66.1833 131.84 68.05C130.506 69.8833 128.523 71.15 125.89 71.85L134.24 86H126.14ZM115.14 67.15H120.99C122.89 67.15 124.306 66.7 125.24 65.8C126.173 64.8667 126.64 63.5833 126.64 61.95C126.64 60.35 126.173 59.1167 125.24 58.25C124.306 57.35 122.89 56.9 120.99 56.9H115.14V67.15ZM165.921 71.55C165.921 72.55 165.854 73.45 165.721 74.25H145.471C145.638 76.25 146.338 77.8167 147.571 78.95C148.804 80.0833 150.321 80.65 152.121 80.65C154.721 80.65 156.571 79.5333 157.671 77.3H165.221C164.421 79.9667 162.888 82.1667 160.621 83.9C158.354 85.6 155.571 86.45 152.271 86.45C149.604 86.45 147.204 85.8667 145.071 84.7C142.971 83.5 141.321 81.8167 140.121 79.65C138.954 77.4833 138.371 74.9833 138.371 72.15C138.371 69.2833 138.954 66.7667 140.121 64.6C141.288 62.4333 142.921 60.7667 145.021 59.6C147.121 58.4333 149.538 57.85 152.271 57.85C154.904 57.85 157.254 58.4167 159.321 59.55C161.421 60.6833 163.038 62.3 164.171 64.4C165.338 66.4667 165.921 68.85 165.921 71.55ZM158.671 69.55C158.638 67.75 157.988 66.3167 156.721 65.25C155.454 64.15 153.904 63.6 152.071 63.6C150.338 63.6 148.871 64.1333 147.671 65.2C146.504 66.2333 145.788 67.6833 145.521 69.55H158.671ZM169.23 72.05C169.23 69.25 169.78 66.7667 170.88 64.6C172.014 62.4333 173.53 60.7667 175.43 59.6C177.364 58.4333 179.514 57.85 181.88 57.85C183.947 57.85 185.747 58.2667 187.28 59.1C188.847 59.9333 190.097 60.9833 191.03 62.25V58.3H198.08V86H191.03V81.95C190.13 83.25 188.88 84.3333 187.28 85.2C185.714 86.0333 183.897 86.45 181.83 86.45C179.497 86.45 177.364 85.85 175.43 84.65C173.53 83.45 172.014 81.7667 170.88 79.6C169.78 77.4 169.23 74.8833 169.23 72.05ZM191.03 72.15C191.03 70.45 190.697 69 190.03 67.8C189.364 66.5667 188.464 65.6333 187.33 65C186.197 64.3333 184.98 64 183.68 64C182.38 64 181.18 64.3167 180.08 64.95C178.98 65.5833 178.08 66.5167 177.38 67.75C176.714 68.95 176.38 70.3833 176.38 72.05C176.38 73.7167 176.714 75.1833 177.38 76.45C178.08 77.6833 178.98 78.6333 180.08 79.3C181.214 79.9667 182.414 80.3 183.68 80.3C184.98 80.3 186.197 79.9833 187.33 79.35C188.464 78.6833 189.364 77.75 190.03 76.55C190.697 75.3167 191.03 73.85 191.03 72.15ZM211.917 49V86H204.917V49H211.917ZM237.747 56.75V65.5H249.497V71.05H237.747V80.3H250.997V86H230.747V51.05H250.997V56.75H237.747ZM267.958 86.45C265.692 86.45 263.658 86.05 261.858 85.25C260.058 84.4167 258.625 83.3 257.558 81.9C256.525 80.5 255.958 78.95 255.858 77.25H262.908C263.042 78.3167 263.558 79.2 264.458 79.9C265.392 80.6 266.542 80.95 267.908 80.95C269.242 80.95 270.275 80.6833 271.008 80.15C271.775 79.6167 272.158 78.9333 272.158 78.1C272.158 77.2 271.692 76.5333 270.758 76.1C269.858 75.6333 268.408 75.1333 266.408 74.6C264.342 74.1 262.642 73.5833 261.308 73.05C260.008 72.5167 258.875 71.7 257.908 70.6C256.975 69.5 256.508 68.0167 256.508 66.15C256.508 64.6167 256.942 63.2167 257.808 61.95C258.708 60.6833 259.975 59.6833 261.608 58.95C263.275 58.2167 265.225 57.85 267.458 57.85C270.758 57.85 273.392 58.6833 275.358 60.35C277.325 61.9833 278.408 64.2 278.608 67H271.908C271.808 65.9 271.342 65.0333 270.508 64.4C269.708 63.7333 268.625 63.4 267.258 63.4C265.992 63.4 265.008 63.6333 264.308 64.1C263.642 64.5667 263.308 65.2167 263.308 66.05C263.308 66.9833 263.775 67.7 264.708 68.2C265.642 68.6667 267.092 69.15 269.058 69.65C271.058 70.15 272.708 70.6667 274.008 71.2C275.308 71.7333 276.425 72.5667 277.358 73.7C278.325 74.8 278.825 76.2667 278.858 78.1C278.858 79.7 278.408 81.1333 277.508 82.4C276.642 83.6667 275.375 84.6667 273.708 85.4C272.075 86.1 270.158 86.45 267.958 86.45ZM292.755 64.05V77.45C292.755 78.3833 292.971 79.0667 293.405 79.5C293.871 79.9 294.638 80.1 295.705 80.1H298.955V86H294.555C288.655 86 285.705 83.1333 285.705 77.4V64.05H282.405V58.3H285.705V51.45H292.755V58.3H298.955V64.05H292.755ZM302.189 72.05C302.189 69.25 302.739 66.7667 303.839 64.6C304.973 62.4333 306.489 60.7667 308.389 59.6C310.323 58.4333 312.473 57.85 314.839 57.85C316.906 57.85 318.706 58.2667 320.239 59.1C321.806 59.9333 323.056 60.9833 323.989 62.25V58.3H331.039V86H323.989V81.95C323.089 83.25 321.839 84.3333 320.239 85.2C318.673 86.0333 316.856 86.45 314.789 86.45C312.456 86.45 310.323 85.85 308.389 84.65C306.489 83.45 304.973 81.7667 303.839 79.6C302.739 77.4 302.189 74.8833 302.189 72.05ZM323.989 72.15C323.989 70.45 323.656 69 322.989 67.8C322.323 66.5667 321.423 65.6333 320.289 65C319.156 64.3333 317.939 64 316.639 64C315.339 64 314.139 64.3167 313.039 64.95C311.939 65.5833 311.039 66.5167 310.339 67.75C309.673 68.95 309.339 70.3833 309.339 72.05C309.339 73.7167 309.673 75.1833 310.339 76.45C311.039 77.6833 311.939 78.6333 313.039 79.3C314.173 79.9667 315.373 80.3 316.639 80.3C317.939 80.3 319.156 79.9833 320.289 79.35C321.423 78.6833 322.323 77.75 322.989 76.55C323.656 75.3167 323.989 73.85 323.989 72.15ZM346.026 64.05V77.45C346.026 78.3833 346.243 79.0667 346.676 79.5C347.143 79.9 347.909 80.1 348.976 80.1H352.226V86H347.826C341.926 86 338.976 83.1333 338.976 77.4V64.05H335.676V58.3H338.976V51.45H346.026V58.3H352.226V64.05H346.026ZM383.011 71.55C383.011 72.55 382.944 73.45 382.811 74.25H362.561C362.727 76.25 363.427 77.8167 364.661 78.95C365.894 80.0833 367.411 80.65 369.211 80.65C371.811 80.65 373.661 79.5333 374.761 77.3H382.311C381.511 79.9667 379.977 82.1667 377.711 83.9C375.444 85.6 372.661 86.45 369.361 86.45C366.694 86.45 364.294 85.8667 362.161 84.7C360.061 83.5 358.411 81.8167 357.211 79.65C356.044 77.4833 355.461 74.9833 355.461 72.15C355.461 69.2833 356.044 66.7667 357.211 64.6C358.377 62.4333 360.011 60.7667 362.111 59.6C364.211 58.4333 366.627 57.85 369.361 57.85C371.994 57.85 374.344 58.4167 376.411 59.55C378.511 60.6833 380.127 62.3 381.261 64.4C382.427 66.4667 383.011 68.85 383.011 71.55ZM375.761 69.55C375.727 67.75 375.077 66.3167 373.811 65.25C372.544 64.15 370.994 63.6 369.161 63.6C367.427 63.6 365.961 64.1333 364.761 65.2C363.594 66.2333 362.877 67.6833 362.611 69.55H375.761Z" fill="black"/>
<path fill-rule="evenodd" clip-rule="evenodd" d="M48.7721 0.693383C47.1061 -0.0394914 45.1158 0.0198197 43.2737 1.04128L4.17141 22.724C0.757591 24.617 -0.854614 29.0976 0.570446 32.7317C1.99551 36.3658 5.91819 37.7773 9.332 35.8843L46.6768 15.1761L82.7331 35.1698C86.1469 37.0628 90.0696 35.6513 91.4947 32.0172C92.9197 28.3831 91.3075 23.9025 87.8937 22.0095L50.7738 1.42602C50.1182 1.0625 49.4439 0.820848 48.7721 0.693383Z" fill="#00D1FF"/>
</svg>
